# xmcd CD database file generated by Grip 3.2.0
# 
# Track frame offsets:
#       182
#       21882
#       40327
#       78482
#       98300
#       120617
#       151765
#       174442
#       203120
#       231392
#       246420
#       258695
#       278315
#       313732
# 
# Disc length: 4245 seconds
# 
# Revision: 1
# Processed by: cddbd v1.5.2PL0 Copyright (c) Steve Scherf et al.
# Submitted via: Grip 3.2.0
# 
DISCID=b110930e
DTITLE=Jay McShann Trio - Hootie!
DYEAR=2000
DGENRE=Jazz
TTITLE0=Cruisin' the Blues
TTITLE1=Moonlight in Vermont
TTITLE2=Kewpie Doll
TTITLE3=Yardbird Suite
TTITLE4=You're Driving Me Crazy/Moten Swing
TTITLE5=Flippin' the Blues
TTITLE6=All of Me
TTITLE7=As Time Goes By
TTITLE8=Sweet Georgia Brown
TTITLE9=My Chile
TTITLE10=Forward March
TTITLE11=Crazy Legs and Friday Strut
TTITLE12=Moanin' Blues
TTITLE13=Closing
EXTD=YEAR: 2000
EXTT0=
EXTT1=
EXTT2=
EXTT3=
EXTT4=
EXTT5=
EXTT6=
EXTT7=
EXTT8=
EXTT9=
EXTT10=
EXTT11=
EXTT12=
EXTT13=
PLAYORDER=
